<?xml version="1.0" encoding="utf-8"?>
<!-- Generator: Adobe Illustrator 19.0.0, SVG Export Plug-In . SVG Version: 6.00 Build 0)  -->
<svg version="1.1" xmlns="http://www.w3.org/2000/svg" xmlns:xlink="http://www.w3.org/1999/xlink" x="0px" y="0px"
	 viewBox="0 0 69.2 44.2" style="enable-background:new 0 0 69.2 44.2;" xml:space="preserve">
<style type="text/css">
	.st0{fill:#932826;}
	.st1{fill:#FFFFFF;}
</style>
<g id="Layer_1">
	<g>
		<g>
			<path class="st0" d="M8.4,38.9h1v-1.6c0.4,0,0.7,0,1.1-0.1c0.2-0.1,0.3-0.2,0.4-0.4H8.4V38.9z"/>
			<path class="st0" d="M21,38.9h1v-1.6h0.3c0.2,0,0.3,0.2,0.3,0.4c0,0.2,0,0.6,0,0.9c0,0.1,0,0.2,0.1,0.2h1v-0.1
				c0,0-0.1-0.1-0.1-0.1c-0.1-0.3-0.1-0.9-0.1-1.3c0-0.3-0.2-0.5-0.5-0.5v0c0,0,0.1,0,0.1-0.1H21V38.9z"/>
			<polygon class="st0" points="33.7,38.9 36,38.9 36,38.1 34.7,38.1 34.7,37.3 35.9,37.3 35.9,36.9 33.7,36.9 			"/>
			<path class="st0" d="M47,37.3c0.3,0.1,0.5,0.3,0.5,0.6c0,0.2-0.1,0.4-0.3,0.4c-0.3,0-0.4-0.2-0.4-0.4v-0.3h-0.9V38
				c0,0.5,0.4,1,1.3,1c0.8,0,1.2-0.4,1.2-1.2c0-0.5-0.1-0.7-0.3-0.9h-1.7C46.5,37.1,46.7,37.2,47,37.3z"/>
			<path class="st0" d="M59.3,37.3c0.3,0.1,0.5,0.3,0.5,0.6c0,0.2-0.1,0.4-0.3,0.4c-0.3,0-0.4-0.2-0.4-0.4v-0.3h-0.9V38
				c0,0.5,0.4,1,1.3,1c0.8,0,1.2-0.4,1.2-1.2c0-0.5-0.1-0.7-0.3-0.9h-1.7C58.9,37.1,59.1,37.2,59.3,37.3z"/>
			<path class="st0" d="M62.7,33.5H6.5l0,3.4h1.9v-2h1.1c0.4,0,0.9,0,1.2,0.3c0.2,0.2,0.3,0.5,0.3,0.9c0,0.3,0,0.5-0.2,0.8H21v-2
				h1.4c0.8,0,1.2,0.3,1.2,1.1c0,0.4-0.1,0.7-0.4,0.9h10.5v-2h2.2v0.8h-1.2v0.7h1.2v0.4h10.5c0,0-0.1-0.1-0.1-0.1
				C46.1,36.6,46,36.3,46,36c0-0.8,0.5-1.1,1.2-1.1c0.8,0,1.3,0.5,1.2,1.3h-0.9c0-0.2,0-0.6-0.3-0.6c-0.2,0-0.3,0.1-0.3,0.3
				c0,0.2,0.1,0.4,0.3,0.5c0.4,0.2,0.7,0.4,0.9,0.6c0,0,0,0,0,0h10.7c0,0-0.1-0.1-0.1-0.1c-0.2-0.2-0.3-0.4-0.3-0.8
				c0-0.8,0.5-1.1,1.2-1.1c0.8,0,1.3,0.5,1.2,1.3h-0.9c0-0.2,0-0.6-0.3-0.6c-0.2,0-0.3,0.1-0.3,0.3c0,0.2,0.1,0.4,0.3,0.5
				c0.4,0.2,0.7,0.4,0.9,0.6c0,0,0,0,0,0h2.3V33.5z"/>
		</g>
		<path class="st0" d="M9.8,35.7c-0.1,0-0.2,0-0.4,0H9.3v1c0.2,0,0.4,0,0.5-0.1c0.1-0.1,0.1-0.3,0.1-0.4C10,36,10,35.8,9.8,35.7z"/>
		<path class="st0" d="M21.9,35.7v1h0.3c0.3,0,0.3-0.2,0.3-0.5C22.6,35.7,22.4,35.7,21.9,35.7z"/>
	</g>
	<g>
		<path class="st1" d="M10.7,35.3C10.4,35,9.9,35,9.5,35H8.4v2h2.4c0.1-0.2,0.2-0.5,0.2-0.8C10.9,35.8,10.9,35.5,10.7,35.3z
			 M9.9,36.6c-0.2,0.1-0.4,0.1-0.5,0.1v-1h0.1c0.2,0,0.3,0,0.4,0C10,35.8,10,36,10,36.2C10,36.3,10,36.5,9.9,36.6z"/>
		<path class="st1" d="M23.6,36.1c0-0.8-0.4-1.1-1.2-1.1H21v2h2.2C23.5,36.7,23.6,36.4,23.6,36.1z M22.3,36.6h-0.3v-1
			c0.5,0,0.7,0,0.7,0.5C22.6,36.4,22.6,36.6,22.3,36.6z"/>
		<polygon class="st1" points="34.7,36.5 34.7,35.8 35.9,35.8 35.9,35 33.7,35 33.7,36.9 35.9,36.9 35.9,36.5 		"/>
		<path class="st1" d="M47.1,36.3c-0.2-0.1-0.3-0.2-0.3-0.5c0-0.2,0.1-0.3,0.3-0.3c0.3,0,0.3,0.3,0.3,0.6h0.9c0-0.7-0.4-1.3-1.2-1.3
			c-0.7,0-1.2,0.4-1.2,1.1c0,0.4,0.1,0.6,0.3,0.8c0,0,0.1,0.1,0.1,0.1h1.7c0,0,0,0,0,0C47.8,36.7,47.5,36.6,47.1,36.3z"/>
		<path class="st1" d="M59.5,36.3c-0.2-0.1-0.3-0.2-0.3-0.5c0-0.2,0.1-0.3,0.3-0.3c0.3,0,0.3,0.3,0.3,0.6h0.9c0-0.7-0.4-1.3-1.2-1.3
			c-0.7,0-1.2,0.4-1.2,1.1c0,0.4,0.1,0.6,0.3,0.8c0,0,0.1,0.1,0.1,0.1h1.7c0,0,0,0,0,0C60.2,36.7,59.9,36.6,59.5,36.3z"/>
	</g>
	<g>
		<path class="st0" d="M38.8,12.7v2.4h0.1c0.5-1.5,2.1-3,3.8-3c2.5,0,4.8,1.4,4.8,4v15.8H42V18.2c-0.1-0.9-0.4-1.6-1.4-1.6
			c-1,0-1.5,0.6-1.5,1.6v13.8h-5.4V12.7H38.8z"/>
		<path class="st0" d="M17.3,31.9v-4.7l-1.3,0c-1.6,0-1.5-1.5-1.5-1.5V10.8h48.2V7.4H14.5V5H8.9v2.4H6.4v3.4h2.5V28
			c0,0-0.1,3.9,3.4,3.9L17.3,31.9z"/>
		<path class="st0" d="M26.6,30.2c-1.2,1.5-2.2,1.9-4,1.9c-2.6,0-4.3-1.7-4.3-4.8c0-4.4,2-5.7,4.1-6.5c2-0.8,4-1,4-3.1
			c0-1.1-0.5-2-1.5-2c-1.7,0-1.7,1.4-1.8,3h-4.6c-0.2-4.8,2.5-6.6,6.3-6.6c4.6,0,6.3,1.7,6.3,5.9v11.8c0,0.7,0.2,1.4,0.4,2.1h-4.5
			L26.6,30.2z M26.4,22.6c-0.9,0.6-1.8,0.9-2.3,1.4c-0.6,0.5-1.1,1.2-1.1,2.5c0,1.2,0.6,2.1,1.7,2.1c1.4,0,1.7-1.7,1.7-2.9V22.6z"/>
		<path class="st0" d="M57.8,30.2c-1.2,1.5-2.2,1.9-4,1.9c-2.6,0-4.3-1.7-4.3-4.8c0-4.4,2-5.7,4.1-6.5c2-0.8,4-1,4-3.1
			c0-1.1-0.5-2-1.5-2c-1.7,0-1.7,1.4-1.8,3h-4.6c-0.2-4.8,2.5-6.6,6.3-6.6c4.6,0,6.3,1.7,6.3,5.9v11.8c0,0.7,0.2,1.4,0.4,2.1h-4.5
			L57.8,30.2z M57.6,22.6c-0.9,0.6-1.8,0.9-2.3,1.4c-0.6,0.5-1.1,1.2-1.1,2.5c0,1.2,0.6,2.1,1.7,2.1c1.4,0,1.7-1.7,1.7-2.9V22.6z"/>
	</g>
</g>
<g id="Layer_2">
</g>
</svg>
